<svg class="h-9" fill="none" viewBox="0 0 630 123" xmlns="http://www.w3.org/2000/svg"><g clip-path="url(#clip0_415_202)"><path d="M266.574 64.0899V44.3185C267.859 44.3185 270.466 44.3185 271.583 44.3185C277.484 44.3185 280.189 46.78 280.189 50.3646C280.189 57.9507 266.574 64.0899 266.574 64.0899ZM290.692 49.4878C290.692 39.3719 281.282 35.206 269.139 35.206H256.07V88.3623H266.574V75.6357C268.23 74.4351 271.364 72.5327 274.365 70.5241L283.39 88.3623H294.438L282.522 64.2871C287.047 60.1685 290.692 55.1985 290.692 49.4878Z" fill="white"></path><path d="M401.506 64.0899V44.3185C402.79 44.3185 405.396 44.3185 406.514 44.3185C412.414 44.3185 415.121 46.78 415.121 50.3646C415.121 57.9507 401.506 64.0899 401.506 64.0899ZM425.623 49.4878C425.623 39.3719 416.214 35.206 404.07 35.206H391V88.3623H401.506V75.6357C403.161 74.4351 406.294 72.5327 409.296 70.5241L418.321 88.3623H429.368L417.452 64.2871C421.979 60.1685 425.623 55.1985 425.623 49.4878Z" fill="white"></path><path d="M505.214 64.0899V44.3185C506.498 44.3185 509.104 44.3185 510.223 44.3185C516.122 44.3185 518.829 46.78 518.829 50.3646C518.829 57.9507 505.214 64.0899 505.214 64.0899ZM529.331 49.4878C529.331 39.3719 519.922 35.206 507.778 35.206H494.708V88.3623H505.214V75.6357C506.869 74.4351 510.004 72.5327 513.004 70.5241L522.029 88.3623H533.078L521.162 64.2871C525.687 60.1685 529.331 55.1985 529.331 49.4878Z" fill="white"></path><path d="M195.53 88.3623L209.221 35.206H198.642L190.473 71.6557H190.161L181.527 35.206H172.812L164.099 71.6557H163.788L155.774 35.206H144.959L158.653 88.3623H168.611L177.013 53.4303H177.247L185.648 88.3623H195.53Z" fill="white"></path><path d="M222.876 68.2375L228.393 47.3539H228.632L234.233 68.2375H222.876ZM222.876 35.206L206.537 88.3623H217.581L220.929 76.2145H236.179L239.519 88.3623H250.497L234.39 35.206H222.876Z" fill="white"></path><path d="M329.161 67.4789L308.78 35.2061H299.987V88.3623H310.49V56.0896H310.878L331.263 88.3623H340.053V35.206H329.552V67.4787L329.161 67.4789Z" fill="white"></path><path d="M383.226 78.8701H361.446V65.5813H377.783V56.8476H361.446V44.6985H382.451V35.2061H350.942V88.3623H383.226V78.8701Z" fill="white"></path><path d="M555.779 43.5662C563.564 43.5662 565.841 52.7913 565.841 61.7917C565.841 70.7841 563.564 80.0159 555.779 80.0159C548.002 80.0159 545.725 70.7841 545.725 61.7917C545.725 52.7913 548.002 43.5662 555.779 43.5662ZM555.779 89.5078C569.782 89.5078 576.338 76.5718 576.338 61.7919C576.338 47.0273 569.782 34.0679 555.779 34.0679C541.775 34.0679 535.219 47.0273 535.219 61.7919C535.219 76.5718 541.775 89.5078 555.779 89.5078Z" fill="white"></path><path d="M600.622 57.61C596.341 54.9526 592.021 53.055 592.021 48.4982C592.021 45.4591 594.786 43.1816 597.898 43.1816C601.399 43.1816 604.943 45.4591 606.107 47.3586L612.722 41.2822C609.61 37.1052 604.123 34.0679 597.509 34.0679C587.783 34.0679 581.519 39.7625 581.519 48.4982C581.519 57.9899 588.563 62.1668 594.24 65.3568C598.676 67.8615 602.997 69.7627 602.997 74.3178C602.997 78.1166 599.454 80.394 595.564 80.394C591.673 80.394 587.742 78.1166 585.409 74.6977L579.184 80.7741C582.686 86.0887 589.73 89.5078 595.954 89.5078C605.68 89.5078 613.5 83.4314 613.5 74.3178C613.5 64.8261 606.224 61.029 600.622 57.61Z" fill="white"></path><path d="M623.568 77.735C620.067 77.735 617.732 80.3925 617.732 83.4297C617.732 86.4677 620.067 89.125 623.568 89.125C627.068 89.125 629.403 86.4677 629.403 83.4297C629.403 80.3925 627.068 77.735 623.568 77.735Z" fill="white"></path><path d="M461.18 78.9476V67.8761C464.611 66.5412 468.409 64.8042 471.891 62.6672C473.523 63.7311 477.141 66.5319 477.141 70.4552C477.141 75.6438 472.275 78.7364 461.18 78.9476ZM461.18 44.082C462.478 44.082 464.939 44.082 466.283 44.082C471.103 44.082 473.575 45.3159 473.575 47.9781C473.575 52.7696 463.263 57.0474 461.18 57.8626V44.082ZM478.938 57.1436C481.756 54.185 483.597 50.7599 483.597 46.8686C483.597 39.2586 476.939 35.302 467.386 35.206H450.674V88.3623H461.18C478.282 87.8716 487.096 81.11 487.096 70.8493C487.096 63.2391 480.533 58.2456 478.938 57.1436Z" fill="white"></path><path d="M118.4 39.8004C117.6 45.5004 114.9 64.3004 101.1 82.7004C87.1 101.7 68.8 110.9 63.2 113.7C57.7 110.9 39.3 101.7 25.3 82.7004C11.6 64.4004 8.89998 45.6004 8.09998 39.8004L16.4 35.3004V29.1004L24.7 24.6004V18.4004C36.1 12.9004 48.7 9.40039 63.2 7.40039C77.7 9.30039 90.3 12.9004 101.7 18.4004V24.6004L110 29.1004V35.3004L118.4 39.8004Z" fill="black"></path><path d="M117.5 30.9V24.7L109.2 20.2V13.7L105 11.7C92.9 6 79.6 2.2 64.2 0.1L63.2 0L62.2 0.1C46.9 2.2 33.5 6 21.5 11.8L17.3 13.8V20.3L9 24.7V30.9L0 35.7L0.7 40.8C3.1 58 9.4 73.6 19.4 87.1C29.5 100.8 43.1 112 59.9 120.4L63.2 122.1L66.5 120.4C83.3 112 96.9 100.8 107 87.1C117 73.6 123.3 58 125.7 40.8L126.4 35.7L117.5 30.9ZM118.4 39.8C117.6 45.5 114.9 64.3 101.1 82.7C87.1 101.7 68.8 110.9 63.2 113.7C57.7 110.9 39.3 101.7 25.3 82.7C11.6 64.4 8.9 45.6 8.1 39.8L16.4 35.3V29.1L24.7 24.6V18.4C36.1 12.9 48.7 9.4 63.2 7.4C77.7 9.3 90.3 12.9 101.7 18.4V24.6L110 29.1V35.3L118.4 39.8Z" fill="white"></path><path d="M50.9 22.4004L51.3 72.9004L50.9 73.1004C45.6 59.6004 42.4 42.8004 41.4 25.9004C38.8 27.1004 36 28.5004 33.1 30.3004C34.3 45.6004 36.9 59.0004 41.6 71.8004L38.9 73.3004C31.8 63.4004 27.2 51.4004 24.1 37.1004C21.9 39.1004 19.8 41.3004 17.6 43.7004C21.7 60.8004 28.3 73.8004 37.8 84.3004L45.1 79.9004C48.7 87.4004 53.7 94.8004 59.3 100.7V20.9004C56.5 21.2004 53.7 21.7004 50.9 22.4004ZM98.1 48.5004C101.1 45.2004 101.7 42.8004 101.7 39.9004C101.7 35.8004 98.3 32.1004 93.3 28.9004C90.3 27.0004 85.7 24.7004 79 22.8004C75.2 21.8004 71.1 21.1004 67 21.0004V100.9C83.8 92.3004 103.7 68.6004 103.8 56.5004C104 52.8004 102.1 50.4004 98.1 48.5004ZM75.4 30.5004C79.5 30.5004 92.9 34.7004 92.9 40.1004C92.9 42.0004 91.2 44.8004 85.9 47.6004L75.4 53.2004V30.5004ZM85.8 74.8004C83.4 77.5004 79.6 81.7004 75.4 84.9004V62.0004C75.4 62.0004 90.6 53.5004 91.1 53.1004C95.6 54.3004 95.4 57.6004 95.4 57.9004C95.4 62.1004 91.1 68.6004 85.8 74.8004Z" fill="white"></path></g><defs><clipPath id="clip0_415_202"><rect fill="white" height="122.1" width="629.403"></rect></clipPath></defs></svg>